<svg width="40" height="40" fill="none" xmlns="http://www.w3.org/2000/svg">
    <path d="M40 20c0 11.056-8.944 20-20 20S0 31.056 0 20 8.944 0 20 0s20 8.944 20 20z" fill="#34E0A1"/>
    <path d="m32.333 16.056 2.389-2.611h-5.334c-2.666-1.834-5.888-2.89-9.388-2.89s-6.723 1.056-9.39 2.89H5.278l2.39 2.61c-1.5 1.334-2.39 3.278-2.39 5.445a7.326 7.326 0 0 0 7.334 7.333 7.304 7.304 0 0 0 5-1.944L20 29.445l2.333-2.556a7.304 7.304 0 0 0 5 1.944 7.326 7.326 0 0 0 7.333-7.333c.056-2.167-.889-4.111-2.333-5.444zM12.666 26.445a4.98 4.98 0 0 1-5-5c0-2.778 2.222-5 5-5s5 2.222 5 5c-.055 2.777-2.277 5-5 5zM20 21.333c0-3.277-2.39-6.11-5.5-7.277a14.095 14.095 0 0 1 5.5-1.111c1.944 0 3.833.388 5.5 1.11-3.111 1.223-5.5 4-5.5 7.278zm7.333 5.112a4.98 4.98 0 0 1-5-5c0-2.778 2.222-5 5-5s5 2.222 5 5c0 2.777-2.222 5-5 5zm0-7.556a2.608 2.608 0 0 0-2.611 2.611 2.608 2.608 0 0 0 2.61 2.611 2.608 2.608 0 0 0 2.612-2.61 2.608 2.608 0 0 0-2.611-2.612zM15.277 21.5a2.608 2.608 0 0 1-2.61 2.611 2.608 2.608 0 0 1-2.612-2.61 2.608 2.608 0 0 1 2.611-2.612 2.608 2.608 0 0 1 2.611 2.611z" fill="#000"/>
</svg>
