<svg width="222" height="47" fill="none" xmlns="http://www.w3.org/2000/svg">
    <path fill-rule="evenodd" clip-rule="evenodd" d="M6.43 46.934v-2.249h1.328v-1.811H6.43V36.4H5.056L0 42.89v1.8h4.409v2.249h2.022l-.001-.005zm-1.8-7.47v3.411H2.023l2.607-3.411zm3.713-2.354 2.807 3.969-2.852 3.939h2.083l1.735-2.46.121-.257.136.257 1.751 2.46h2.085l-2.867-3.939 2.822-3.969h-2.083l-1.69 2.475-.151.272-.121-.272-1.705-2.475H8.343zm14.566 9.824v-2.249h1.328v-1.811h-1.328V36.4h-1.373l-5.056 6.49v1.8h4.407v2.249h2.022v-.005zm-1.8-7.47v3.411h-2.606l2.606-3.411zm8.006 2.136c.25.648.613 1.246 1.072 1.766.46.52 1.016.948 1.637 1.26a4.562 4.562 0 0 0 2.1.483 5.583 5.583 0 0 0 1.328-.166c.444-.107.872-.27 1.275-.483a4.708 4.708 0 0 0 1.072-.777c.313-.302.562-.664.732-1.064l-1.705-.981a2.331 2.331 0 0 1-.483.747 2.833 2.833 0 0 1-1.403.793c-.247.059-.5.09-.755.091a2.721 2.721 0 0 1-1.275-.3 3.201 3.201 0 0 1-1-.8 3.632 3.632 0 0 1-.641-1.154 4.16 4.16 0 0 1-.226-1.366c.003-.433.07-.862.2-1.275.124-.414.32-.802.581-1.147a3 3 0 0 1 .966-.822c.421-.22.891-.328 1.366-.317.249 0 .497.029.74.083.252.056.495.144.724.264.241.128.46.294.649.491.213.223.386.481.513.762l1.6-1.1a4.147 4.147 0 0 0-1.607-1.69 4.873 4.873 0 0 0-2.558-.649 5.129 5.129 0 0 0-2.234.468 5.2 5.2 0 0 0-2.693 2.926 5.473 5.473 0 0 0 .03 3.956l-.005.001zm14.118 3.207a3.5 3.5 0 0 0 1.283-1.056l.045.438a1.1 1.1 0 0 0 .385.679c.255.186.568.277.883.256.3-.006.598-.041.89-.106v-1.721a.5.5 0 0 1-.37-.151.71.71 0 0 1-.113-.453v-2.46a3.07 3.07 0 0 0-.943-2.422 3.855 3.855 0 0 0-2.649-.838 5.84 5.84 0 0 0-3.29 1.011l.619 1.283c.384-.271.8-.494 1.237-.664a3.5 3.5 0 0 1 1.238-.226c.478-.035.952.116 1.321.423a1.586 1.586 0 0 1 .445 1.207v.453a4.216 4.216 0 0 0-.9-.257 5.847 5.847 0 0 0-1.034-.09 4.64 4.64 0 0 0-1.358.189c-.382.11-.742.287-1.064.521-.29.213-.527.489-.694.807a2.195 2.195 0 0 0-.249 1.034c-.006.344.063.685.2 1 .134.3.326.568.566.792.25.231.541.41.86.528a3 3 0 0 0 1.072.189 3.685 3.685 0 0 0 1.625-.367l-.005.001zm-2.007-1.456a1.08 1.08 0 0 1-.392-.853 1.066 1.066 0 0 1 .5-.9c.38-.25.83-.375 1.285-.355.274.001.547.03.815.083.267.05.53.123.785.217v.905a.728.728 0 0 1-.332.574 1.766 1.766 0 0 1-.717.483c-.31.121-.64.183-.973.181a1.424 1.424 0 0 1-.966-.336l-.005.001zm11.53-6.331a.824.824 0 0 0-.159-.015h-.244a1.857 1.857 0 0 0-.657.128c-.24.093-.465.217-.672.37a3.837 3.837 0 0 0-.619.566 3.6 3.6 0 0 0-.5.732v-1.69h-1.853v7.908h2.022v-4.786a2.076 2.076 0 0 1 1.041-1.019 3.99 3.99 0 0 1 1.645-.355v-1.84l-.004.001zm6.52 8v-3.595h2.053l2.188 3.592h2.339l-2.445-4.029a2.988 2.988 0 0 0 1.411-1.23 3.563 3.563 0 0 0 .264-3.184 3.855 3.855 0 0 0-.709-1.147 3.537 3.537 0 0 0-1.079-.815 3.043 3.043 0 0 0-1.366-.309h-4.734v10.714h2.083l-.005.003zm0-8.889h2.52c.186.001.37.045.536.128.179.088.338.21.468.362.14.163.25.35.325.551.082.222.123.457.121.694.002.23-.034.46-.106.679-.064.199-.16.385-.287.551a1.368 1.368 0 0 1-.43.37c-.164.09-.349.137-.536.136h-2.606v-3.474l-.005.003zm13.409 8.459a3.527 3.527 0 0 0 1.4-1.487l-1.735-.483a1.56 1.56 0 0 1-.732.777 2.33 2.33 0 0 1-1.14.294 2.13 2.13 0 0 1-.754-.136 2.033 2.033 0 0 1-1.115-1.012 2.345 2.345 0 0 1-.226-.83h6.112a1.62 1.62 0 0 0 .038-.3c0-.121.007-.246.007-.377a4.326 4.326 0 0 0-.279-1.539 3.787 3.787 0 0 0-.815-1.3 3.978 3.978 0 0 0-1.3-.89 4.288 4.288 0 0 0-1.728-.332 4.4 4.4 0 0 0-1.743.332 3.883 3.883 0 0 0-2.151 2.213 4.402 4.402 0 0 0-.287 1.592c-.002.532.098 1.06.294 1.555a3.877 3.877 0 0 0 2.152 2.176c.546.223 1.13.333 1.72.325a4.326 4.326 0 0 0 2.286-.581l-.004.003zm-4.338-4.188c.015-.277.083-.549.2-.8a1.993 1.993 0 0 1 1.071-1.019 2.117 2.117 0 0 1 2.173.392c.395.373.63.884.657 1.426h-4.097l-.004.001zm14.7-.317c0-.38-.034-.758-.1-1.132a2.983 2.983 0 0 0-.355-1 1.96 1.96 0 0 0-.724-.709 2.386 2.386 0 0 0-1.208-.272 4.066 4.066 0 0 0-1.871.422 3 3 0 0 0-1.268 1.177v-1.462h-1.826v7.908h2.023v-4.618c.07-.24.182-.465.332-.664a2.74 2.74 0 0 1 .5-.521 2.29 2.29 0 0 1 .6-.34 1.74 1.74 0 0 1 .619-.121 1.093 1.093 0 0 1 .921.438c.254.416.37.902.332 1.388v4.437h2.022v-4.934l.003.003zm5.946 2.928c-.121.05-.282.111-.483.181-.199.07-.408.106-.619.106a.831.831 0 0 1-.535-.174.72.72 0 0 1-.219-.6v-3.862h1.66v-1.555h-1.66v-2.566h-2.023v2.566h-1.041v1.554h1.041v4.543c-.008.308.048.615.166.9a1.652 1.652 0 0 0 1.095.94c.258.072.524.108.792.106a4.18 4.18 0 0 0 1.237-.181c.34-.1.674-.222 1-.362l-.411-1.596zm5.161 1.8a3.5 3.5 0 0 0 1.283-1.056l.045.438c.042.266.178.507.385.679.255.186.568.277.883.256.3-.006.598-.041.89-.106v-1.727a.493.493 0 0 1-.369-.151.707.707 0 0 1-.113-.453v-2.46a3.069 3.069 0 0 0-.944-2.422 3.853 3.853 0 0 0-2.648-.838 5.84 5.84 0 0 0-3.29 1.011l.618 1.283a5.75 5.75 0 0 1 1.238-.664 3.5 3.5 0 0 1 1.238-.226c.478-.035.951.116 1.32.423a1.586 1.586 0 0 1 .445 1.207v.453a4.23 4.23 0 0 0-.9-.257 5.847 5.847 0 0 0-1.034-.09c-.46-.005-.917.06-1.358.189a3.455 3.455 0 0 0-1.064.521c-.29.213-.527.489-.694.807a2.195 2.195 0 0 0-.249 1.034c-.006.344.063.685.2 1 .134.3.326.569.566.792.249.231.541.41.86.528a3 3 0 0 0 1.071.189 3.682 3.682 0 0 0 1.624-.367l-.003.007zm-2.007-1.456a1.08 1.08 0 0 1-.392-.853 1.066 1.066 0 0 1 .5-.9 2.16 2.16 0 0 1 1.283-.355c.273.001.546.03.814.083.267.051.53.124.785.219v.905a.728.728 0 0 1-.332.574 1.763 1.763 0 0 1-.717.483c-.31.121-.64.183-.973.181a1.424 1.424 0 0 1-.965-.344l-.003.007zm6.806-.159a1.916 1.916 0 0 0 .521 1.441 2.025 2.025 0 0 0 1.471.505c.33-.004.658-.04.981-.106.329-.059.648-.16.951-.3l-.268-1.547a2.68 2.68 0 0 1-.416.151c-.13.038-.265.058-.4.06a.757.757 0 0 1-.6-.242 1.002 1.002 0 0 1-.211-.679V34h-2.023v9.191l-.006.007zm17.627 1.826-2.218-2.324c.298-.5.527-1.038.679-1.6a7.71 7.71 0 0 0 .256-1.947h-1.645c.003.416-.04.83-.128 1.237a5.109 5.109 0 0 1-.354 1.056l-2.053-2.143c.494-.345.936-.76 1.313-1.23.342-.437.523-.978.513-1.532a2.136 2.136 0 0 0-.241-1.034 2.267 2.267 0 0 0-.634-.739 2.833 2.833 0 0 0-.906-.445 3.785 3.785 0 0 0-1.071-.151 3.633 3.633 0 0 0-1.17.181c-.34.111-.656.288-.928.521a2.466 2.466 0 0 0-.619.815 2.475 2.475 0 0 0 .038 2.143c.251.451.558.87.913 1.245-.251.17-.49.357-.717.558a4.339 4.339 0 0 0-.6.656 2.908 2.908 0 0 0-.415.777 2.974 2.974 0 0 0 .105 2.136c.17.386.416.732.725 1.019.331.304.718.54 1.139.694.48.177.988.264 1.5.257.539 0 1.074-.089 1.584-.264a4.98 4.98 0 0 0 1.434-.777l.845.89h2.656l-.001.001zm-7.071-1.569a1.951 1.951 0 0 1-.6-.34 1.478 1.478 0 0 1-.521-1.117 1.402 1.402 0 0 1 .3-.875c.238-.296.517-.555.83-.77l2.475 2.611a2.775 2.775 0 0 1-1.735.619 2.161 2.161 0 0 1-.749-.128zm-.2-7.5a1.1 1.1 0 0 1 .792-.294c.262-.01.518.078.717.249a.835.835 0 0 1 .279.657 1.099 1.099 0 0 1-.3.747 4.829 4.829 0 0 1-.888.729c-.181-.191-.33-.352-.445-.483-.1-.11-.193-.226-.28-.347a1.234 1.234 0 0 1-.151-.279.791.791 0 0 1-.045-.264.958.958 0 0 1 .314-.715h.007zm19.46-1.653h-8.919v1.826h3.426v8.889h2.067v-8.889h3.426v-1.826zm4.1 2.717a.813.813 0 0 0-.158-.015h-.249a1.855 1.855 0 0 0-.657.128 2.878 2.878 0 0 0-.671.37 3.799 3.799 0 0 0-.619.566 3.618 3.618 0 0 0-.5.732v-1.69h-1.857v7.908h2.023v-4.785a2.072 2.072 0 0 1 1.041-1.019 3.992 3.992 0 0 1 1.645-.355v-1.84h.002zm4.724 7.787a3.508 3.508 0 0 0 1.283-1.056l.045.438a1.1 1.1 0 0 0 .385.679c.255.186.568.277.883.256a4.51 4.51 0 0 0 .89-.106v-1.72a.502.502 0 0 1-.37-.151.717.717 0 0 1-.113-.453v-2.46a3.062 3.062 0 0 0-.943-2.422 3.857 3.857 0 0 0-2.649-.838 5.84 5.84 0 0 0-3.29 1.011l.619 1.283c.384-.271.8-.494 1.238-.664.395-.15.814-.226 1.237-.226.478-.035.952.116 1.321.423a1.583 1.583 0 0 1 .445 1.207v.453a4.23 4.23 0 0 0-.9-.257 5.842 5.842 0 0 0-1.034-.09c-.46-.005-.917.06-1.358.189-.382.11-.742.287-1.064.521-.29.213-.527.489-.694.807a2.19 2.19 0 0 0-.249 1.034 2.42 2.42 0 0 0 .2 1c.134.299.327.568.566.792.249.23.542.41.861.528.342.128.705.192 1.071.189a3.681 3.681 0 0 0 1.618-.367h.002zm-2.007-1.456a1.073 1.073 0 0 1-.393-.853 1.065 1.065 0 0 1 .5-.9c.38-.25.829-.375 1.283-.355.274.001.547.03.815.083.267.051.53.125.785.219v.905a.726.726 0 0 1-.332.574 1.764 1.764 0 0 1-.717.483c-.31.121-.64.183-.973.181-.354.012-.7-.108-.97-.337h.002zm10.923 1.667 2.913-7.908h-1.9l-2.022 6.263-2.007-6.263h-2.084l2.913 7.908h2.187zm9.576-.43a3.53 3.53 0 0 0 1.4-1.487l-1.736-.483a1.558 1.558 0 0 1-.732.777c-.348.194-.74.295-1.139.294-.258 0-.514-.046-.755-.136a2.026 2.026 0 0 1-1.114-1.009 2.353 2.353 0 0 1-.227-.83h6.112c.022-.099.035-.199.038-.3 0-.121.008-.246.008-.377a4.283 4.283 0 0 0-.28-1.539 3.79 3.79 0 0 0-.814-1.3 3.99 3.99 0 0 0-1.3-.89 4.3 4.3 0 0 0-1.728-.332 4.406 4.406 0 0 0-1.744.332 3.881 3.881 0 0 0-2.15 2.213 4.417 4.417 0 0 0-.287 1.592 4.18 4.18 0 0 0 .294 1.555 3.886 3.886 0 0 0 2.148 2.176 4.389 4.389 0 0 0 1.721.325 4.325 4.325 0 0 0 2.286-.581h-.001zm-4.339-4.188c.015-.277.083-.549.2-.8a2 2 0 0 1 1.071-1.019 2.117 2.117 0 0 1 2.173.392c.395.372.631.884.657 1.426h-4.105l.004.001zm7.335 2.792a1.909 1.909 0 0 0 .52 1.441 2.023 2.023 0 0 0 1.472.505c.33-.004.658-.04.981-.106.328-.059.648-.16.95-.3l-.271-1.539a2.706 2.706 0 0 1-.415.151c-.13.038-.265.058-.4.06a.757.757 0 0 1-.6-.242 1.002 1.002 0 0 1-.211-.679V34h-2.022v9.191h-.004zm10.081 1.826v-3.592h2.535c.47.006.934-.097 1.358-.3a3.335 3.335 0 0 0 1.057-.8c.294-.335.524-.721.679-1.139.16-.422.242-.87.241-1.321a3.459 3.459 0 0 0-.256-1.29 3.853 3.853 0 0 0-.709-1.147 3.534 3.534 0 0 0-1.08-.815 3.042 3.042 0 0 0-1.365-.309h-4.543v10.713h2.083zm0-8.889h2.324c.184 0 .367.04.536.113.177.077.335.193.46.34.138.163.245.35.317.551.083.235.124.483.121.732.025.455-.112.904-.385 1.268a1.2 1.2 0 0 1-.959.468h-2.414v-3.472zm7.032 7.063a1.926 1.926 0 0 0 .521 1.441 2.029 2.029 0 0 0 1.471.505c.33-.004.658-.04.981-.106.329-.059.648-.16.951-.3l-.272-1.539a2.664 2.664 0 0 1-.415.151c-.13.038-.265.058-.4.06a.757.757 0 0 1-.6-.242 1.002 1.002 0 0 1-.211-.679V34h-2.023v9.191h-.003zm8.5 1.615a3.508 3.508 0 0 0 1.283-1.056l.045.438a1.1 1.1 0 0 0 .385.679c.255.186.568.277.883.256a4.51 4.51 0 0 0 .89-.106v-1.72a.502.502 0 0 1-.37-.151.717.717 0 0 1-.113-.453v-2.46a3.077 3.077 0 0 0-.943-2.422 3.857 3.857 0 0 0-2.649-.838 5.84 5.84 0 0 0-3.29 1.011l.619 1.283a5.75 5.75 0 0 1 1.237-.664c.396-.15.815-.226 1.238-.226.478-.035.951.116 1.32.423a1.582 1.582 0 0 1 .446 1.207v.453a4.23 4.23 0 0 0-.9-.257 5.842 5.842 0 0 0-1.034-.09c-.46-.005-.917.06-1.358.189-.382.11-.742.287-1.064.521a2.38 2.38 0 0 0-.695.807 2.19 2.19 0 0 0-.249 1.034c-.006.344.062.685.2 1 .134.299.327.568.566.792.249.23.541.41.86.528.343.128.706.192 1.072.189a3.684 3.684 0 0 0 1.619-.367h.002zm-2.007-1.456a1.073 1.073 0 0 1-.393-.853 1.065 1.065 0 0 1 .5-.9c.38-.25.829-.375 1.283-.355.274.001.547.03.815.083.267.051.53.125.785.219v.905a.726.726 0 0 1-.332.574 1.77 1.77 0 0 1-.717.483c-.31.121-.641.183-.974.181a1.422 1.422 0 0 1-.969-.337h.002zm14.171-3.267c0-.38-.034-.758-.1-1.132a2.97 2.97 0 0 0-.354-1 1.957 1.957 0 0 0-.725-.709 2.382 2.382 0 0 0-1.207-.272 4.066 4.066 0 0 0-1.871.422c-.529.26-.97.669-1.268 1.177v-1.46h-1.824v7.908h2.022v-4.618c.069-.24.182-.465.332-.664a2.75 2.75 0 0 1 .506-.521c.182-.143.384-.258.6-.34a1.73 1.73 0 0 1 .619-.121 1.088 1.088 0 0 1 .92.438c.254.416.37.902.332 1.388v4.437h2.023v-4.934l-.005.001zm9.039 0c0-.38-.034-.758-.1-1.132a2.97 2.97 0 0 0-.354-1 1.976 1.976 0 0 0-.725-.709 2.382 2.382 0 0 0-1.207-.272 4.07 4.07 0 0 0-1.872.422 2.99 2.99 0 0 0-1.267 1.177v-1.46h-1.826v7.908h2.022v-4.618c.069-.24.182-.465.332-.664a2.75 2.75 0 0 1 .506-.521c.182-.143.384-.258.6-.34a1.73 1.73 0 0 1 .618-.121 1.091 1.091 0 0 1 .921.438c.254.416.37.902.332 1.388v4.437h2.022v-4.934l-.002.001zm7.644 4.5a3.53 3.53 0 0 0 1.4-1.487l-1.735-.483a1.558 1.558 0 0 1-.732.777 2.335 2.335 0 0 1-1.14.294c-.257 0-.513-.045-.754-.136a2.035 2.035 0 0 1-1.123-1.005 2.354 2.354 0 0 1-.227-.83h6.113c.022-.099.034-.199.037-.3 0-.121.008-.246.008-.377a4.326 4.326 0 0 0-.279-1.539 3.797 3.797 0 0 0-.815-1.3 3.984 3.984 0 0 0-1.3-.89 4.288 4.288 0 0 0-1.728-.332 4.397 4.397 0 0 0-1.743.332 3.881 3.881 0 0 0-2.151 2.213 4.417 4.417 0 0 0-.287 1.592c0 .533.102 1.06.3 1.555a3.878 3.878 0 0 0 2.15 2.181 4.389 4.389 0 0 0 1.721.325 4.325 4.325 0 0 0 2.283-.586l.002-.004zm-4.339-4.188c.015-.277.083-.549.2-.8a1.991 1.991 0 0 1 1.072-1.019 2.117 2.117 0 0 1 2.173.392c.395.373.63.884.656 1.426h-4.1l-.001.001zm12.059-3.381a.831.831 0 0 0-.159-.015h-.249a1.854 1.854 0 0 0-.656.128c-.24.093-.466.217-.672.37a3.864 3.864 0 0 0-.619.566 3.618 3.618 0 0 0-.5.732v-1.69h-1.856v7.908h2.022v-4.78a2.08 2.08 0 0 1 1.042-1.019 3.992 3.992 0 0 1 1.645-.355v-1.84l.002-.005z" fill="#fff"/>
    <path fill-rule="evenodd" clip-rule="evenodd" d="m34.579 12.644-1.725 5.212L27.43.703H20l9.789 25h5.7l3.521-8.944 3.557 8.944h5.7l9.79-25h-7.456l-5.387 17.149-1.8-5.212L47.534.702H41.23l-2.218 7.712L36.83.703h-6.3l4.049 11.941zm31.094 13.061V7.182h-6.691v18.523h6.691zm0-20.072V-.001h-6.691v5.634h6.691zm2.887 15.072a5.233 5.233 0 0 0 1.444 3.979 5.746 5.746 0 0 0 4.12 1.373 13.7 13.7 0 0 0 2.835-.317 12.295 12.295 0 0 0 2.694-.88l-.845-4.93a3.953 3.953 0 0 1-.916.387c-.297.09-.606.137-.916.141-1.15 0-1.726-.704-1.725-2.113V-.001H68.56v20.706zm23.488 4.578a5.778 5.778 0 0 0 2.57-2.465l.141.669c.352 1.714 1.667 2.571 3.944 2.571a14.717 14.717 0 0 0 2.817-.352v-5.635a1.345 1.345 0 0 1-.986-.44 2.263 2.263 0 0 1-.281-1.321V-.001h-6.691v9.93a5.633 5.633 0 0 0-2.306-2.289 6.814 6.814 0 0 0-3.293-.81 7.37 7.37 0 0 0-3.275.722 7.7 7.7 0 0 0-2.553 2.007 9.422 9.422 0 0 0-1.673 3.046 11.735 11.735 0 0 0-.6 3.8 11.22 11.22 0 0 0 .651 3.891 9.252 9.252 0 0 0 1.817 3.067 8.04 8.04 0 0 0 2.764 1.99 8.613 8.613 0 0 0 3.5.7 7.9 7.9 0 0 0 3.454-.77zm-4.279-5.916a3.921 3.921 0 0 1-1-2.817 4.68 4.68 0 0 1 .264-1.585c.162-.468.398-.907.7-1.3a3.167 3.167 0 0 1 1.056-.88c.42-.213.885-.322 1.356-.317.737.012 1.446.28 2.007.757a4.735 4.735 0 0 1 1.444 1.99v3.31a3.843 3.843 0 0 1-3.169 1.9 3.5 3.5 0 0 1-2.658-1.058zm31.041 6.339v-7.678h2.571l4.4 7.677h7.749l-5.283-9.191a8.295 8.295 0 0 0 2.642-3.081 8.915 8.915 0 0 0 .95-4.067 8.337 8.337 0 0 0-.634-3.152 9.19 9.19 0 0 0-1.743-2.782 8.784 8.784 0 0 0-2.658-1.972 7.607 7.607 0 0 0-3.381-.757h-11.48v25h6.867v.003zm0-19.016h4.155a1.779 1.779 0 0 1 1.268.687c.457.558.684 1.27.634 1.99.042.7-.15 1.394-.546 1.972a1.517 1.517 0 0 1-1.18.7h-4.331v-5.35.001zm22.607 19.016V7.182h-6.687v18.523h6.69l-.003.001zm0-20.072V-.001h-6.687v5.634h6.69l-.003.001zm14.227 19.649a5.778 5.778 0 0 0 2.57-2.465l.141.669c.352 1.714 1.667 2.571 3.944 2.571a14.718 14.718 0 0 0 2.817-.352v-5.635a1.345 1.345 0 0 1-.986-.44 2.263 2.263 0 0 1-.281-1.321V-.001h-6.691v9.93a5.631 5.631 0 0 0-2.306-2.289 6.816 6.816 0 0 0-3.293-.81 7.372 7.372 0 0 0-3.275.722 7.704 7.704 0 0 0-2.553 2.007 9.42 9.42 0 0 0-1.673 3.046 11.765 11.765 0 0 0-.6 3.8 11.235 11.235 0 0 0 .651 3.891 9.246 9.246 0 0 0 1.814 3.064 8.04 8.04 0 0 0 2.764 1.99 8.612 8.612 0 0 0 3.5.7 7.904 7.904 0 0 0 3.457-.767zm-4.279-5.916a3.92 3.92 0 0 1-1-2.817 4.674 4.674 0 0 1 .264-1.585c.162-.468.398-.907.7-1.3a3.167 3.167 0 0 1 1.057-.88 2.912 2.912 0 0 1 1.355-.317c.737.012 1.446.28 2.007.757a4.739 4.739 0 0 1 1.444 1.99v3.31a3.841 3.841 0 0 1-3.169 1.9 3.499 3.499 0 0 1-2.658-1.058zm31.024 5.277a8.925 8.925 0 0 0 3.468-3.627l-5.669-1.62a2.477 2.477 0 0 1-1.285 1.373 4.477 4.477 0 0 1-2.06.493 3.817 3.817 0 0 1-2.149-.652 2.602 2.602 0 0 1-1.091-2.13h12.994c.047-.282.088-.605.123-.968s.052-.721.053-1.074a10.309 10.309 0 0 0-.652-3.645 8.724 8.724 0 0 0-1.936-3.064 9.474 9.474 0 0 0-3.187-2.113 12.478 12.478 0 0 0-8.751 0 9.353 9.353 0 0 0-3.169 2.131 8.79 8.79 0 0 0-1.937 3.134 11.059 11.059 0 0 0-.651 3.8 9.54 9.54 0 0 0 .669 3.557 8.851 8.851 0 0 0 1.954 2.993 9.169 9.169 0 0 0 3.187 2.06c1.382.525 2.852.782 4.331.757a10.987 10.987 0 0 0 5.758-1.405zm-8.927-10.177a3.434 3.434 0 0 1 .986-2.113 3.173 3.173 0 0 1 4.155 0 3.44 3.44 0 0 1 .986 2.113h-6.127zm27.713-7.606a5.943 5.943 0 0 0-.845-.035 5.46 5.46 0 0 0-3.152 1 7.813 7.813 0 0 0-2.447 2.87V7.182h-6.127v18.523h6.691V14.718a4.284 4.284 0 0 1 2.359-1.409 13.658 13.658 0 0 1 3.521-.423V6.861z" fill="#FC0"/>
</svg>
